<svg id="Layer_1" data-name="Layer 1" xmlns="http://www.w3.org/2000/svg" width="31" height="31" viewBox="0 0 31 31"><defs><style>.cls-1{fill:#ed1c24;}</style></defs><title>aerospace</title><path class="cls-1" d="M321.33,383.84a2.53,2.53,0,0,0-3.54-3.54,9.66,9.66,0,0,0-3.8,2.39l-3.54,3.54-14.71-3.52a.63.63,0,0,0-.67.18l-2.83,2.83a.68.68,0,0,0-.2.59.76.76,0,0,0,.38.54L303.66,393l-5.73,5.73-4.29-1.18-.18,0a.69.69,0,0,0-.51.2l-2.12,2.15a.71.71,0,0,0-.2.55.67.67,0,0,0,.29.51l5.57,4.18,4.18,5.57a.76.76,0,0,0,.53.29h.05a.69.69,0,0,0,.5-.2l2.13-2.12a.7.7,0,0,0,.18-.69l-1.18-4.29,5.73-5.73,6.17,11.24a.62.62,0,0,0,.47.35.33.33,0,0,0,.15,0,.61.61,0,0,0,.42-.14l2.84-2.12a.69.69,0,0,0,.26-.73l-3.54-15.4,3.56-3.56a9.66,9.66,0,0,0,2.39-3.8Zm0,0" transform="translate(-290.63 -380)"/></svg>