<svg id="Layer_1" data-name="Layer 1" xmlns="http://www.w3.org/2000/svg" width="37.07" height="36.89" viewBox="0 0 37.07 36.89"><defs><style>.cls-1{fill:#ed1c24;}</style></defs><title>agri</title><path class="cls-1" d="M306.66,377.22a.76.76,0,0,0-1.07,0c-1.18,1.35-3.89,4.68-3.89,6.81a4.45,4.45,0,1,0,8.85,0c0-2.13-2.71-5.46-3.89-6.81Zm0,0" transform="translate(-287.59 -377)"/><path class="cls-1" d="M318.19,394.43c1.95-1.5,3.09-5.33,3.5-6.92a.44.44,0,0,0-.18-.45.77.77,0,0,0-.58-.14c-2.07.31-7,1.19-9,2.7-2.49,1.92-3.12,4.56-1.39,5.89s5.15.85,7.65-1.08Zm0,0" transform="translate(-287.59 -377)"/><path class="cls-1" d="M324.47,398.39a.76.76,0,0,0-.58-.13c-2.41.35-8.89,1.45-11.39,3.38-3.09,2.38-3.87,5.66-1.73,7.31s6.4,1.05,9.49-1.34c2.5-1.92,3.93-6.91,4.39-8.77a.44.44,0,0,0-.18-.45Zm0,0" transform="translate(-287.59 -377)"/><path class="cls-1" d="M291.33,386.92a.77.77,0,0,0-.58.14.42.42,0,0,0-.18.45c.4,1.59,1.54,5.42,3.5,6.92,2.5,1.93,5.92,2.41,7.65,1.08s1.1-4-1.4-5.89c-1.95-1.51-6.92-2.39-9-2.7Zm0,0" transform="translate(-287.59 -377)"/><path class="cls-1" d="M288.36,398.26a.77.77,0,0,0-.58.13.44.44,0,0,0-.18.45c.46,1.86,1.89,6.85,4.39,8.77,3.1,2.39,7.35,3,9.49,1.34s1.37-4.93-1.73-7.31c-2.5-1.93-9-3-11.39-3.38Zm0,0" transform="translate(-287.59 -377)"/><path class="cls-1" d="M306.13,390.29a1.46,1.46,0,0,0-1.61,1.24v21.12a1.66,1.66,0,0,0,3.21,0V391.53a1.45,1.45,0,0,0-1.6-1.24Zm0,0" transform="translate(-287.59 -377)"/></svg>