<svg id="Layer_1" data-name="Layer 1" xmlns="http://www.w3.org/2000/svg" width="39.03" height="34" viewBox="0 0 39.03 34"><defs><style>.cls-1{fill:#ed1c24;}</style></defs><title>healthcare</title><path class="cls-1" d="M315.28,379c-4.63,0-7.6,3.2-9.15,6.09C304.57,382.2,301.6,379,297,379c-5.87,0-10.37,4.76-10.37,11.07a11.82,11.82,0,0,0,.94,4.63h8.72l2-3.94a1.2,1.2,0,0,1,2.05,0l3.55,7.1,1.27-2.52a1.18,1.18,0,0,1,2,0l1.27,2.52,3.55-7.1a1.19,1.19,0,0,1,2,0l2,3.94h8.73a12,12,0,0,0,.93-4.63C325.64,383.76,321.14,379,315.28,379Z" transform="translate(-286.61 -379)"/><path class="cls-1" d="M314.25,396.36,313,393.83l-3.55,7.1a1.14,1.14,0,0,1-2.05,0l-1.26-2.53-1.27,2.53a1.18,1.18,0,0,1-2,0l-3.55-7.1L298,396.36a1.13,1.13,0,0,1-1,.63h-8.23c2.35,3.7,6.59,7.22,11.89,11.7,1.49,1.25,3.08,2.59,4.74,4a1.11,1.11,0,0,0,.75.28,1.15,1.15,0,0,0,.75-.28q2.49-2.16,4.73-4c5.3-4.48,9.54-8,11.9-11.7h-8.23A1.15,1.15,0,0,1,314.25,396.36Z" transform="translate(-286.61 -379)"/></svg>